<?xml version="1.0" encoding="utf-8"?>
<!-- Generator: Adobe Illustrator 28.0.0, SVG Export Plug-In . SVG Version: 6.00 Build 0)  -->
<svg version="1.1" id="レイヤー_1" xmlns="http://www.w3.org/2000/svg" xmlns:xlink="http://www.w3.org/1999/xlink" x="0px"
	 y="0px" viewBox="0 0 20 121.1" style="enable-background:new 0 0 20 121.1;" xml:space="preserve">
<style type="text/css">
	.st0{fill:none;stroke:#D92B42;stroke-width:2;stroke-linejoin:bevel;}
	.st1{fill:#D92B42;}
	.st2{fill:#FFFFFF;filter:url(#Adobe_OpacityMaskFilter);}
	.st3{mask:url(#path-2-outside-1_4_467_00000177451083788100193330000017757171402166350998_);fill:#FFFFFF;}
</style>
<g>
	<defs>
		<rect id="SVGID_1_" x="-10.3" y="-4.2" width="40" height="120"/>
	</defs>
	<clipPath id="SVGID_00000155136471248154127160000007791129476088909957_">
		<use xlink:href="#SVGID_1_"  style="overflow:visible;"/>
	</clipPath>
</g>
<g>
	<path class="st0" d="M10.1,28.9V0.6L4.6,7.2"/>
	<path class="st1" d="M18.8,120.1H3.6V118h1.8v-0.2c-0.2-0.1-0.5-0.3-0.8-0.5c-0.3-0.2-0.6-0.6-0.8-1c-0.2-0.4-0.3-1-0.3-1.6
		c0-0.9,0.2-1.7,0.7-2.4c0.4-0.7,1.1-1.2,1.9-1.6c0.8-0.4,1.9-0.6,3-0.6c1.2,0,2.2,0.2,3.1,0.6c0.8,0.4,1.5,0.9,2,1.6
		c0.5,0.7,0.7,1.5,0.7,2.4c0,0.7-0.1,1.2-0.3,1.6c-0.2,0.4-0.5,0.7-0.8,1c-0.3,0.2-0.6,0.4-0.8,0.6v0.1h5.8V120.1z M9.1,118
		c0.8,0,1.5-0.1,2-0.3c0.6-0.2,1-0.5,1.4-1c0.3-0.4,0.5-0.9,0.5-1.6c0-0.6-0.2-1.2-0.5-1.6c-0.3-0.4-0.8-0.8-1.4-1
		c-0.6-0.2-1.2-0.3-2-0.3c-0.7,0-1.4,0.1-2,0.3c-0.6,0.2-1,0.5-1.4,1c-0.3,0.4-0.5,1-0.5,1.6c0,0.6,0.2,1.1,0.5,1.6
		c0.3,0.4,0.8,0.7,1.3,1S8.4,118,9.1,118z M14.9,104.4c0,0.7-0.1,1.3-0.4,1.9c-0.3,0.6-0.6,1-1.1,1.3c-0.5,0.3-1.1,0.5-1.8,0.5
		c-0.6,0-1.1-0.1-1.5-0.4c-0.4-0.2-0.7-0.6-1-1c-0.2-0.4-0.4-0.9-0.5-1.4c-0.1-0.5-0.2-1-0.3-1.5c-0.1-0.7-0.1-1.2-0.2-1.6
		c-0.1-0.4-0.1-0.7-0.3-0.9c-0.1-0.2-0.3-0.3-0.6-0.3H7.2c-0.6,0-1.1,0.2-1.5,0.5c-0.3,0.3-0.5,0.9-0.5,1.6c0,0.7,0.2,1.3,0.5,1.7
		c0.3,0.4,0.7,0.7,1.1,0.9l-0.5,2c-0.7-0.2-1.2-0.6-1.6-1c-0.4-0.5-0.7-1-0.9-1.6c-0.2-0.6-0.3-1.2-0.3-1.9c0-0.4,0.1-0.9,0.2-1.4
		c0.1-0.5,0.3-1,0.6-1.4c0.3-0.4,0.7-0.8,1.2-1.1c0.5-0.3,1.2-0.4,2-0.4h7.3v2.1h-1.5v0.1c0.3,0.1,0.5,0.3,0.8,0.6
		c0.3,0.3,0.5,0.6,0.7,1.1C14.8,103.3,14.9,103.8,14.9,104.4z M13.2,104c0-0.6-0.1-1.1-0.4-1.5c-0.2-0.4-0.5-0.7-0.9-1
		c-0.4-0.2-0.8-0.3-1.2-0.3H9.3c0.1,0.1,0.1,0.2,0.2,0.4c0.1,0.2,0.1,0.5,0.2,0.7c0,0.3,0.1,0.5,0.1,0.8c0,0.3,0.1,0.5,0.1,0.7
		c0.1,0.4,0.1,0.8,0.3,1.1c0.1,0.3,0.3,0.6,0.5,0.8c0.2,0.2,0.5,0.3,0.9,0.3c0.5,0,0.9-0.2,1.2-0.6C13,105.1,13.2,104.6,13.2,104z
		 M19,91.6c0,0.9-0.1,1.6-0.3,2.3c-0.2,0.6-0.5,1.1-0.9,1.5c-0.4,0.4-0.8,0.7-1.2,0.9l-0.8-1.8c0.2-0.1,0.4-0.3,0.7-0.5
		c0.2-0.2,0.4-0.5,0.6-0.9c0.2-0.4,0.3-0.9,0.3-1.5c0-0.8-0.2-1.5-0.6-2c-0.4-0.5-1-0.8-1.9-0.8h-2.2v0.1c0.2,0.1,0.5,0.3,0.8,0.6
		c0.3,0.2,0.5,0.6,0.7,1c0.2,0.4,0.3,1,0.3,1.6c0,0.9-0.2,1.7-0.6,2.3c-0.4,0.7-1,1.2-1.8,1.6c-0.8,0.4-1.8,0.6-3,0.6
		c-1.2,0-2.2-0.2-3-0.6c-0.8-0.4-1.5-0.9-1.9-1.6c-0.4-0.7-0.7-1.5-0.7-2.4c0-0.7,0.1-1.2,0.3-1.7c0.2-0.4,0.5-0.7,0.8-1
		c0.3-0.2,0.6-0.4,0.8-0.6v-0.2H3.6v-2.1h11.2c0.9,0,1.7,0.2,2.3,0.7c0.6,0.4,1.1,1,1.3,1.8C18.8,89.8,19,90.6,19,91.6z M12.7,91.6
		c0-0.6-0.1-1.1-0.4-1.6c-0.3-0.4-0.7-0.8-1.2-1c-0.5-0.2-1.2-0.3-2-0.3c-0.7,0-1.4,0.1-2,0.3c-0.6,0.2-1,0.5-1.3,1
		c-0.3,0.4-0.5,0.9-0.5,1.6c0,0.6,0.2,1.2,0.5,1.6c0.3,0.4,0.8,0.8,1.3,1c0.6,0.2,1.2,0.3,1.9,0.3c0.7,0,1.4-0.1,1.9-0.3
		c0.5-0.2,1-0.5,1.3-1C12.5,92.7,12.7,92.2,12.7,91.6z M14.9,79c0,1.1-0.2,2-0.7,2.8c-0.5,0.8-1.1,1.4-2,1.8c-0.8,0.4-1.8,0.6-3,0.6
		c-1.1,0-2.1-0.2-3-0.6c-0.9-0.4-1.5-1-2-1.8c-0.5-0.8-0.7-1.7-0.7-2.7c0-0.6,0.1-1.2,0.3-1.8c0.2-0.6,0.5-1.1,1-1.6
		c0.4-0.5,1-0.8,1.7-1.1C7.2,74.4,8,74.3,9,74.3h0.8V83H8.2v-6.6c-0.6,0-1.1,0.1-1.5,0.3c-0.4,0.2-0.8,0.6-1,1
		c-0.3,0.4-0.4,0.9-0.4,1.4c0,0.6,0.1,1.1,0.4,1.6c0.3,0.4,0.7,0.8,1.1,1c0.5,0.2,1,0.4,1.5,0.4h1.3c0.7,0,1.4-0.1,1.9-0.4
		c0.5-0.3,0.9-0.6,1.2-1.1c0.3-0.5,0.4-1,0.4-1.6c0-0.4-0.1-0.8-0.2-1.1c-0.1-0.3-0.3-0.6-0.5-0.9c-0.2-0.2-0.5-0.4-0.9-0.6l0.4-2
		c0.6,0.2,1.1,0.5,1.6,0.9c0.4,0.4,0.8,0.9,1,1.6C14.7,77.5,14.9,78.2,14.9,79z M3.6,61.4h1.7v6H3.6V61.4z M1,65.8v-2.1h10.4
		c0.4,0,0.7-0.1,0.9-0.2c0.2-0.1,0.3-0.3,0.4-0.5c0.1-0.2,0.1-0.4,0.1-0.7c0-0.2,0-0.3,0-0.5c0-0.1,0-0.2-0.1-0.3l1.8-0.4
		c0,0.1,0.1,0.3,0.1,0.5c0.1,0.2,0.1,0.5,0.1,0.9c0,0.6-0.1,1.1-0.3,1.6c-0.2,0.5-0.5,0.9-1,1.2c-0.4,0.3-1,0.5-1.7,0.5H1z
		 M14.9,54.5c0,1-0.2,1.9-0.7,2.7c-0.5,0.8-1.1,1.4-2,1.8c-0.8,0.4-1.8,0.6-3,0.6c-1.1,0-2.1-0.2-3-0.6c-0.9-0.4-1.5-1-2-1.8
		c-0.5-0.8-0.7-1.7-0.7-2.7c0-1,0.2-1.9,0.7-2.7c0.5-0.8,1.1-1.4,2-1.8c0.9-0.4,1.9-0.6,3-0.6c1.1,0,2.1,0.2,3,0.6
		c0.8,0.4,1.5,1,2,1.8C14.6,52.6,14.9,53.5,14.9,54.5z M13.1,54.5c0-0.7-0.2-1.2-0.5-1.7c-0.4-0.4-0.8-0.8-1.4-1
		c-0.6-0.2-1.2-0.3-1.9-0.3c-0.7,0-1.3,0.1-1.9,0.3c-0.6,0.2-1.1,0.5-1.4,1c-0.4,0.4-0.5,1-0.5,1.7c0,0.7,0.2,1.2,0.5,1.7
		c0.4,0.4,0.8,0.8,1.4,1c0.6,0.2,1.2,0.3,1.9,0.3c0.7,0,1.4-0.1,1.9-0.3c0.6-0.2,1.1-0.5,1.4-1C12.9,55.8,13.1,55.2,13.1,54.5z
		 M18.8,47H3.6v-2.1h1.8v-0.2c-0.2-0.1-0.5-0.3-0.8-0.5c-0.3-0.2-0.6-0.6-0.8-1c-0.2-0.4-0.3-1-0.3-1.6c0-0.9,0.2-1.7,0.7-2.4
		c0.4-0.7,1.1-1.2,1.9-1.6C7,37.2,8,37,9.2,37c1.2,0,2.2,0.2,3.1,0.6c0.8,0.4,1.5,0.9,2,1.6c0.5,0.7,0.7,1.5,0.7,2.4
		c0,0.7-0.1,1.2-0.3,1.6c-0.2,0.4-0.5,0.7-0.8,1c-0.3,0.2-0.6,0.4-0.8,0.6v0.1h5.8V47z M9.1,44.9c0.8,0,1.5-0.1,2-0.3
		c0.6-0.2,1-0.5,1.4-1c0.3-0.4,0.5-0.9,0.5-1.6c0-0.6-0.2-1.2-0.5-1.6c-0.3-0.4-0.8-0.8-1.4-1c-0.6-0.2-1.2-0.3-2-0.3
		c-0.7,0-1.4,0.1-2,0.3c-0.6,0.2-1,0.5-1.4,1c-0.3,0.4-0.5,1-0.5,1.6c0,0.6,0.2,1.1,0.5,1.6c0.3,0.4,0.8,0.7,1.3,1
		S8.4,44.9,9.1,44.9z"/>
	<defs>
		<filter id="Adobe_OpacityMaskFilter" filterUnits="userSpaceOnUse" x="0" y="36" width="20" height="85.1">
			<feColorMatrix  type="matrix" values="1 0 0 0 0  0 1 0 0 0  0 0 1 0 0  0 0 0 1 0"/>
		</filter>
	</defs>
	
		<mask maskUnits="userSpaceOnUse" x="0" y="36" width="20" height="85.1" id="path-2-outside-1_4_467_00000177451083788100193330000017757171402166350998_">
		<rect x="-0.5" y="35.9" class="st2" width="21.2" height="85.7"/>
		<path d="M18.8,120.1H3.6V118h1.8v-0.2c-0.2-0.1-0.5-0.3-0.8-0.5c-0.3-0.2-0.6-0.6-0.8-1c-0.2-0.4-0.3-1-0.3-1.6
			c0-0.9,0.2-1.7,0.7-2.4c0.4-0.7,1.1-1.2,1.9-1.6c0.8-0.4,1.9-0.6,3-0.6c1.2,0,2.2,0.2,3.1,0.6c0.8,0.4,1.5,0.9,2,1.6
			c0.5,0.7,0.7,1.5,0.7,2.4c0,0.7-0.1,1.2-0.3,1.6c-0.2,0.4-0.5,0.7-0.8,1c-0.3,0.2-0.6,0.4-0.8,0.6v0.1h5.8V120.1z M9.1,118
			c0.8,0,1.5-0.1,2-0.3c0.6-0.2,1-0.5,1.4-1c0.3-0.4,0.5-0.9,0.5-1.6c0-0.6-0.2-1.2-0.5-1.6c-0.3-0.4-0.8-0.8-1.4-1
			c-0.6-0.2-1.2-0.3-2-0.3c-0.7,0-1.4,0.1-2,0.3c-0.6,0.2-1,0.5-1.4,1c-0.3,0.4-0.5,1-0.5,1.6c0,0.6,0.2,1.1,0.5,1.6
			c0.3,0.4,0.8,0.7,1.3,1S8.4,118,9.1,118z M14.9,104.4c0,0.7-0.1,1.3-0.4,1.9c-0.3,0.6-0.6,1-1.1,1.3c-0.5,0.3-1.1,0.5-1.8,0.5
			c-0.6,0-1.1-0.1-1.5-0.4c-0.4-0.2-0.7-0.6-1-1c-0.2-0.4-0.4-0.9-0.5-1.4c-0.1-0.5-0.2-1-0.3-1.5c-0.1-0.7-0.1-1.2-0.2-1.6
			c-0.1-0.4-0.1-0.7-0.3-0.9c-0.1-0.2-0.3-0.3-0.6-0.3H7.2c-0.6,0-1.1,0.2-1.5,0.5c-0.3,0.3-0.5,0.9-0.5,1.6c0,0.7,0.2,1.3,0.5,1.7
			c0.3,0.4,0.7,0.7,1.1,0.9l-0.5,2c-0.7-0.2-1.2-0.6-1.6-1c-0.4-0.5-0.7-1-0.9-1.6c-0.2-0.6-0.3-1.2-0.3-1.9c0-0.4,0.1-0.9,0.2-1.4
			c0.1-0.5,0.3-1,0.6-1.4c0.3-0.4,0.7-0.8,1.2-1.1c0.5-0.3,1.2-0.4,2-0.4h7.3v2.1h-1.5v0.1c0.3,0.1,0.5,0.3,0.8,0.6
			c0.3,0.3,0.5,0.6,0.7,1.1C14.8,103.3,14.9,103.8,14.9,104.4z M13.2,104c0-0.6-0.1-1.1-0.4-1.5c-0.2-0.4-0.5-0.7-0.9-1
			c-0.4-0.2-0.8-0.3-1.2-0.3H9.3c0.1,0.1,0.1,0.2,0.2,0.4c0.1,0.2,0.1,0.5,0.2,0.7c0,0.3,0.1,0.5,0.1,0.8c0,0.3,0.1,0.5,0.1,0.7
			c0.1,0.4,0.1,0.8,0.3,1.1c0.1,0.3,0.3,0.6,0.5,0.8c0.2,0.2,0.5,0.3,0.9,0.3c0.5,0,0.9-0.2,1.2-0.6C13,105.1,13.2,104.6,13.2,104z
			 M19,91.6c0,0.9-0.1,1.6-0.3,2.3c-0.2,0.6-0.5,1.1-0.9,1.5c-0.4,0.4-0.8,0.7-1.2,0.9l-0.8-1.8c0.2-0.1,0.4-0.3,0.7-0.5
			c0.2-0.2,0.4-0.5,0.6-0.9c0.2-0.4,0.3-0.9,0.3-1.5c0-0.8-0.2-1.5-0.6-2c-0.4-0.5-1-0.8-1.9-0.8h-2.2v0.1c0.2,0.1,0.5,0.3,0.8,0.6
			c0.3,0.2,0.5,0.6,0.7,1c0.2,0.4,0.3,1,0.3,1.6c0,0.9-0.2,1.7-0.6,2.3c-0.4,0.7-1,1.2-1.8,1.6c-0.8,0.4-1.8,0.6-3,0.6
			c-1.2,0-2.2-0.2-3-0.6c-0.8-0.4-1.5-0.9-1.9-1.6c-0.4-0.7-0.7-1.5-0.7-2.4c0-0.7,0.1-1.2,0.3-1.7c0.2-0.4,0.5-0.7,0.8-1
			c0.3-0.2,0.6-0.4,0.8-0.6v-0.2H3.6v-2.1h11.2c0.9,0,1.7,0.2,2.3,0.7c0.6,0.4,1.1,1,1.3,1.8C18.8,89.8,19,90.6,19,91.6z M12.7,91.6
			c0-0.6-0.1-1.1-0.4-1.6c-0.3-0.4-0.7-0.8-1.2-1c-0.5-0.2-1.2-0.3-2-0.3c-0.7,0-1.4,0.1-2,0.3c-0.6,0.2-1,0.5-1.3,1
			c-0.3,0.4-0.5,0.9-0.5,1.6c0,0.6,0.2,1.2,0.5,1.6c0.3,0.4,0.8,0.8,1.3,1c0.6,0.2,1.2,0.3,1.9,0.3c0.7,0,1.4-0.1,1.9-0.3
			c0.5-0.2,1-0.5,1.3-1C12.5,92.7,12.7,92.2,12.7,91.6z M14.9,79c0,1.1-0.2,2-0.7,2.8c-0.5,0.8-1.1,1.4-2,1.8
			c-0.8,0.4-1.8,0.6-3,0.6c-1.1,0-2.1-0.2-3-0.6c-0.9-0.4-1.5-1-2-1.8c-0.5-0.8-0.7-1.7-0.7-2.7c0-0.6,0.1-1.2,0.3-1.8
			c0.2-0.6,0.5-1.1,1-1.6c0.4-0.5,1-0.8,1.7-1.1C7.2,74.4,8,74.3,9,74.3h0.8V83H8.2v-6.6c-0.6,0-1.1,0.1-1.5,0.3
			c-0.4,0.2-0.8,0.6-1,1c-0.3,0.4-0.4,0.9-0.4,1.4c0,0.6,0.1,1.1,0.4,1.6c0.3,0.4,0.7,0.8,1.1,1c0.5,0.2,1,0.4,1.5,0.4h1.3
			c0.7,0,1.4-0.1,1.9-0.4c0.5-0.3,0.9-0.6,1.2-1.1c0.3-0.5,0.4-1,0.4-1.6c0-0.4-0.1-0.8-0.2-1.1c-0.1-0.3-0.3-0.6-0.5-0.9
			c-0.2-0.2-0.5-0.4-0.9-0.6l0.4-2c0.6,0.2,1.1,0.5,1.6,0.9c0.4,0.4,0.8,0.9,1,1.6C14.7,77.5,14.9,78.2,14.9,79z M3.6,61.4h1.7v6
			H3.6V61.4z M1,65.8v-2.1h10.4c0.4,0,0.7-0.1,0.9-0.2c0.2-0.1,0.3-0.3,0.4-0.5c0.1-0.2,0.1-0.4,0.1-0.7c0-0.2,0-0.3,0-0.5
			c0-0.1,0-0.2-0.1-0.3l1.8-0.4c0,0.1,0.1,0.3,0.1,0.5c0.1,0.2,0.1,0.5,0.1,0.9c0,0.6-0.1,1.1-0.3,1.6c-0.2,0.5-0.5,0.9-1,1.2
			c-0.4,0.3-1,0.5-1.7,0.5H1z M14.9,54.5c0,1-0.2,1.9-0.7,2.7c-0.5,0.8-1.1,1.4-2,1.8c-0.8,0.4-1.8,0.6-3,0.6c-1.1,0-2.1-0.2-3-0.6
			c-0.9-0.4-1.5-1-2-1.8c-0.5-0.8-0.7-1.7-0.7-2.7c0-1,0.2-1.9,0.7-2.7c0.5-0.8,1.1-1.4,2-1.8c0.9-0.4,1.9-0.6,3-0.6
			c1.1,0,2.1,0.2,3,0.6c0.8,0.4,1.5,1,2,1.8C14.6,52.6,14.9,53.5,14.9,54.5z M13.1,54.5c0-0.7-0.2-1.2-0.5-1.7
			c-0.4-0.4-0.8-0.8-1.4-1c-0.6-0.2-1.2-0.3-1.9-0.3c-0.7,0-1.3,0.1-1.9,0.3c-0.6,0.2-1.1,0.5-1.4,1c-0.4,0.4-0.5,1-0.5,1.7
			c0,0.7,0.2,1.2,0.5,1.7c0.4,0.4,0.8,0.8,1.4,1c0.6,0.2,1.2,0.3,1.9,0.3c0.7,0,1.4-0.1,1.9-0.3c0.6-0.2,1.1-0.5,1.4-1
			C12.9,55.8,13.1,55.2,13.1,54.5z M18.8,47H3.6v-2.1h1.8v-0.2c-0.2-0.1-0.5-0.3-0.8-0.5c-0.3-0.2-0.6-0.6-0.8-1
			c-0.2-0.4-0.3-1-0.3-1.6c0-0.9,0.2-1.7,0.7-2.4c0.4-0.7,1.1-1.2,1.9-1.6C7,37.2,8,37,9.2,37c1.2,0,2.2,0.2,3.1,0.6
			c0.8,0.4,1.5,0.9,2,1.6c0.5,0.7,0.7,1.5,0.7,2.4c0,0.7-0.1,1.2-0.3,1.6c-0.2,0.4-0.5,0.7-0.8,1c-0.3,0.2-0.6,0.4-0.8,0.6v0.1h5.8
			V47z M9.1,44.9c0.8,0,1.5-0.1,2-0.3c0.6-0.2,1-0.5,1.4-1c0.3-0.4,0.5-0.9,0.5-1.6c0-0.6-0.2-1.2-0.5-1.6c-0.3-0.4-0.8-0.8-1.4-1
			c-0.6-0.2-1.2-0.3-2-0.3c-0.7,0-1.4,0.1-2,0.3c-0.6,0.2-1,0.5-1.4,1c-0.3,0.4-0.5,1-0.5,1.6c0,0.6,0.2,1.1,0.5,1.6
			c0.3,0.4,0.8,0.7,1.3,1S8.4,44.9,9.1,44.9z"/>
	</mask>
	<path class="st3" d="M18.8,120.1v1h1v-1H18.8z M3.6,120.1h-1v1h1V120.1z M3.6,118v-1h-1v1H3.6z M5.4,118v1h1v-1H5.4z M5.4,117.8h1
		v-0.6l-0.5-0.3L5.4,117.8z M4.6,117.3l0.6-0.8l0,0L4.6,117.3z M3.8,116.3l0.9-0.5l0,0L3.8,116.3z M4.2,112.3l0.8,0.5l0,0L4.2,112.3
		z M6.1,110.6l0.4,0.9l0,0L6.1,110.6z M12.2,110.6l0.4-0.9l0,0L12.2,110.6z M14.2,112.3l0.8-0.6l0,0L14.2,112.3z M14.5,116.3
		l0.9,0.5l0,0L14.5,116.3z M13.7,117.3l-0.6-0.8l0,0L13.7,117.3z M12.9,117.8l-0.5-0.9l-0.5,0.3v0.6H12.9z M12.9,117.9h-1v1h1V117.9
		z M18.8,117.9h1v-1h-1V117.9z M11.2,117.7l0.4,0.9L11.2,117.7z M12.5,116.7l0.8,0.6l0,0L12.5,116.7z M12.5,113.5l0.8-0.6l0,0
		L12.5,113.5z M11.1,112.5l-0.4,0.9l0,0L11.1,112.5z M7.2,112.5l0.4,0.9l0,0L7.2,112.5z M5.8,113.5l0.8,0.6l0,0L5.8,113.5z
		 M5.8,116.7L5,117.3l0,0L5.8,116.7z M7.1,117.7l0.4-0.9l0,0L7.1,117.7z M18.8,119.1H3.6v2h15.1V119.1z M4.7,120.1V118h-2v2.1H4.7z
		 M3.6,119h1.8v-2H3.6V119z M6.4,118v-0.2h-2v0.2H6.4z M5.9,116.9c-0.2-0.1-0.4-0.2-0.7-0.4L4,118.1c0.3,0.3,0.6,0.5,0.9,0.6
		L5.9,116.9z M5.2,116.5c-0.2-0.1-0.3-0.3-0.5-0.7l-1.8,1c0.3,0.5,0.6,1,1.1,1.3L5.2,116.5z M4.7,115.8c-0.1-0.2-0.2-0.6-0.2-1.2h-2
		c0,0.8,0.1,1.5,0.5,2.1L4.7,115.8z M4.5,114.7c0-0.7,0.2-1.3,0.5-1.8l-1.7-1.1c-0.6,0.9-0.8,1.9-0.8,2.9H4.5z M5,112.8
		c0.3-0.5,0.8-0.9,1.5-1.3l-0.9-1.8c-1,0.5-1.8,1.1-2.4,2L5,112.8z M6.5,111.6c0.7-0.3,1.5-0.5,2.6-0.5v-2c-1.3,0-2.5,0.2-3.5,0.7
		L6.5,111.6z M9.2,111c1.1,0,1.9,0.2,2.6,0.5l0.9-1.8c-1-0.5-2.2-0.7-3.5-0.7V111z M11.8,111.5c0.7,0.3,1.2,0.8,1.5,1.3l1.7-1.1
		c-0.6-0.9-1.4-1.5-2.4-2L11.8,111.5z M13.3,112.8c0.3,0.5,0.5,1.1,0.5,1.8h2c0-1.1-0.3-2.1-0.8-2.9L13.3,112.8z M13.8,114.6
		c0,0.6-0.1,0.9-0.2,1.2l1.8,0.9c0.3-0.6,0.5-1.3,0.5-2.1H13.8z M13.6,115.8c-0.2,0.3-0.4,0.5-0.5,0.7l1.3,1.6
		c0.4-0.3,0.8-0.8,1-1.3L13.6,115.8z M13.1,116.5c-0.3,0.2-0.5,0.4-0.7,0.5l1,1.8c0.3-0.2,0.6-0.4,0.9-0.6L13.1,116.5z M11.9,117.8
		v0.1h2v-0.1H11.9z M12.9,119h5.8v-2h-5.8V119z M17.8,117.9v2.1h2v-2.1H17.8z M9.1,119c0.9,0,1.7-0.1,2.4-0.4l-0.7-1.9
		c-0.4,0.2-1,0.3-1.7,0.3V119z M11.5,118.6c0.7-0.3,1.3-0.7,1.8-1.3l-1.6-1.2c-0.2,0.3-0.5,0.5-0.9,0.7L11.5,118.6z M13.3,117.3
		c0.5-0.6,0.7-1.4,0.7-2.2h-2c0,0.4-0.1,0.7-0.3,0.9L13.3,117.3z M14,115.1c0-0.8-0.2-1.6-0.7-2.2l-1.6,1.2c0.2,0.2,0.3,0.5,0.3,1
		H14z M13.3,112.9c-0.5-0.6-1.1-1-1.8-1.3l-0.7,1.9c0.4,0.2,0.7,0.4,1,0.7L13.3,112.9z M11.5,111.6c-0.7-0.3-1.5-0.4-2.3-0.4v2
		c0.6,0,1.2,0.1,1.6,0.3L11.5,111.6z M9.1,111.2c-0.8,0-1.6,0.1-2.3,0.4l0.7,1.9c0.4-0.2,1-0.3,1.6-0.3V111.2z M6.8,111.6
		c-0.7,0.3-1.4,0.7-1.8,1.3l1.6,1.2c0.2-0.3,0.5-0.5,0.9-0.6L6.8,111.6z M5,112.9c-0.5,0.6-0.7,1.4-0.7,2.2h2c0-0.5,0.1-0.8,0.3-1
		L5,112.9z M4.3,115.1c0,0.8,0.2,1.5,0.7,2.2l1.6-1.2c-0.2-0.2-0.3-0.5-0.3-1H4.3z M5,117.3c0.5,0.6,1.1,1,1.8,1.3l0.7-1.9
		c-0.4-0.2-0.7-0.4-0.9-0.6L5,117.3z M6.8,118.6c0.7,0.3,1.5,0.4,2.4,0.4v-2c-0.7,0-1.2-0.1-1.6-0.3L6.8,118.6z M14.5,106.3l0.9,0.4
		l0,0L14.5,106.3z M13.4,107.7l0.6,0.8l0,0L13.4,107.7z M10,107.8l0.5-0.9L10,107.8z M9,106.8l0.9-0.5L9,106.8z M8.2,103.9l-1,0.1
		l0,0L8.2,103.9z M8.1,102.3l1-0.1l0,0L8.1,102.3z M7.8,101.4l0.9-0.5L7.8,101.4z M5.7,101.7l0.7,0.7l0,0L5.7,101.7z M5.7,105
		l0.8-0.6l0,0L5.7,105z M6.8,105.8l1,0.2l0.2-0.8l-0.8-0.3L6.8,105.8z M6.3,107.8L6,108.8l1.1,0.4l0.3-1.1L6.3,107.8z M4.7,106.8
		l0.8-0.7h0L4.7,106.8z M3.8,105.2l1-0.3l0,0L3.8,105.2z M3.7,101.9l1,0.2l0,0L3.7,101.9z M4.2,100.5l0.9,0.5l0,0L4.2,100.5z
		 M5.4,99.4l0.5,0.9l0,0L5.4,99.4z M14.6,99h1v-1h-1V99z M14.6,101.1v1h1v-1H14.6z M13.1,101.1v-1h-1v1H13.1z M13.1,101.2h-1v0.6
		l0.6,0.3L13.1,101.2z M14,101.8l-0.7,0.7L14,101.8z M14.6,102.9l-0.9,0.4L14.6,102.9z M12.8,102.5l-0.9,0.5l0,0L12.8,102.5z
		 M11.9,101.5l-0.5,0.9l0,0L11.9,101.5z M9.3,101.2v-1H6.8l1.7,1.7L9.3,101.2z M9.5,101.6l1-0.3l0,0l0,0L9.5,101.6z M9.6,102.3
		l1-0.2l0,0l0,0L9.6,102.3z M9.8,103.1l1-0.1l0,0l0,0L9.8,103.1z M9.8,103.8l1-0.1l0,0L9.8,103.8z M10.1,104.9l-0.9,0.3l0,0
		L10.1,104.9z M10.6,105.8l-0.7,0.8h0L10.6,105.8z M12.8,105.5l0.8,0.6l0,0L12.8,105.5z M13.9,104.4c0,0.6-0.1,1.1-0.3,1.5l1.8,0.8
		c0.3-0.7,0.5-1.5,0.5-2.3H13.9z M13.6,105.9c-0.2,0.4-0.4,0.7-0.8,0.9l1.1,1.7c0.7-0.4,1.2-1,1.5-1.8L13.6,105.9z M12.8,106.8
		c-0.3,0.2-0.7,0.3-1.3,0.3v2c0.9,0,1.7-0.2,2.4-0.7L12.8,106.8z M11.5,107.1c-0.5,0-0.8-0.1-1-0.2l-1,1.7c0.6,0.4,1.3,0.5,2,0.5
		V107.1z M10.5,106.9c-0.3-0.2-0.4-0.3-0.6-0.6l-1.7,1c0.3,0.6,0.8,1,1.3,1.3L10.5,106.9z M9.9,106.3c-0.2-0.3-0.3-0.7-0.4-1.1
		l-2,0.5c0.1,0.6,0.3,1.1,0.6,1.6L9.9,106.3z M9.5,105.2c-0.1-0.5-0.2-0.9-0.3-1.4l-2,0.2c0.1,0.6,0.2,1.1,0.3,1.6L9.5,105.2z
		 M9.2,103.8c-0.1-0.7-0.1-1.2-0.2-1.6l-2,0.2c0,0.4,0.1,0.9,0.2,1.6L9.2,103.8z M9.1,102.2c-0.1-0.4-0.2-0.9-0.4-1.3L7,102
		c0,0,0,0,0,0.1c0,0.1,0.1,0.2,0.1,0.4L9.1,102.2z M8.7,100.9c-0.3-0.5-0.9-0.8-1.4-0.8v2c0,0,0,0-0.1,0C7,102.1,7,102,7,102
		L8.7,100.9z M7.3,100.2L7.3,100.2l-0.1,2h0.1V100.2z M7.2,100.2c-0.8,0-1.6,0.2-2.2,0.8l1.4,1.4c0.1-0.1,0.3-0.2,0.7-0.2V100.2z
		 M5,101c-0.6,0.6-0.8,1.4-0.8,2.3h2c0-0.5,0.1-0.8,0.2-0.9L5,101z M4.2,103.3c0,0.9,0.2,1.7,0.7,2.3l1.6-1.2
		c-0.1-0.2-0.3-0.5-0.3-1.1H4.2z M4.9,105.6c0.4,0.5,0.9,0.9,1.5,1.2l0.8-1.9c-0.2-0.1-0.4-0.2-0.6-0.5L4.9,105.6z M5.8,105.6
		l-0.5,2l2,0.4l0.5-2L5.8,105.6z M6.6,106.9c-0.5-0.2-0.9-0.5-1.2-0.8l-1.5,1.3c0.5,0.6,1.2,1,2,1.3L6.6,106.9z M5.4,106.1
		c-0.3-0.4-0.5-0.8-0.7-1.2l-1.9,0.6c0.2,0.7,0.6,1.4,1.1,2L5.4,106.1z M4.7,104.9c-0.2-0.5-0.2-1-0.2-1.6h-2c0,0.8,0.1,1.5,0.3,2.2
		L4.7,104.9z M4.5,103.3c0-0.4,0-0.8,0.1-1.2l-2-0.4c-0.1,0.6-0.2,1.1-0.2,1.6H4.5z M4.6,102.1c0.1-0.4,0.2-0.7,0.4-1L3.4,100
		c-0.3,0.5-0.6,1.1-0.7,1.7L4.6,102.1z M5.1,101c0.2-0.3,0.4-0.5,0.8-0.7l-1-1.8c-0.6,0.3-1.2,0.8-1.5,1.4L5.1,101z M5.9,100.3
		c0.3-0.2,0.8-0.3,1.5-0.3v-2c-0.9,0-1.7,0.2-2.4,0.5L5.9,100.3z M7.3,100h7.3v-2H7.3V100z M13.6,99v2.1h2V99H13.6z M14.6,100.1
		h-1.5v2h1.5V100.1z M12.1,101.1L12.1,101.1l2,0.1v-0.1H12.1z M12.7,102.1c0.2,0.1,0.3,0.2,0.5,0.4l1.5-1.4
		c-0.3-0.3-0.7-0.6-1.1-0.8L12.7,102.1z M13.2,102.5c0.2,0.2,0.3,0.4,0.5,0.7l1.9-0.8c-0.2-0.5-0.5-1-0.9-1.4L13.2,102.5z
		 M13.7,103.3c0.1,0.3,0.2,0.7,0.2,1.2h2c0-0.7-0.1-1.4-0.3-1.9L13.7,103.3z M14.2,104c0-0.7-0.1-1.4-0.5-2l-1.8,1
		c0.1,0.2,0.2,0.6,0.2,1H14.2z M13.7,102c-0.3-0.6-0.7-1-1.3-1.4l-1,1.7c0.2,0.1,0.4,0.3,0.5,0.6L13.7,102z M12.4,100.6
		c-0.5-0.3-1.1-0.5-1.7-0.5v2c0.3,0,0.5,0.1,0.7,0.2L12.4,100.6z M10.7,100.1H9.3v2h1.4V100.1z M8.5,101.9
		C8.5,101.8,8.5,101.8,8.5,101.9C8.5,101.8,8.5,101.8,8.5,101.9c-0.1-0.1-0.1-0.1-0.1-0.1C8.5,101.8,8.5,101.8,8.5,101.9
		C8.5,101.8,8.5,101.9,8.5,101.9l1.9-0.6c-0.1-0.2-0.2-0.6-0.5-0.9L8.5,101.9z M8.5,101.9c0,0.2,0.1,0.4,0.1,0.6l2-0.3
		c-0.1-0.3-0.1-0.6-0.2-0.8L8.5,101.9z M8.6,102.5c0,0.3,0.1,0.5,0.1,0.8l2-0.3c0-0.3-0.1-0.5-0.1-0.8L8.6,102.5z M8.8,103.3
		c0,0.3,0.1,0.5,0.1,0.7l2-0.3c0-0.2-0.1-0.4-0.1-0.7L8.8,103.3z M8.8,103.9c0.1,0.5,0.2,0.9,0.3,1.4l1.9-0.7
		c-0.1-0.3-0.2-0.6-0.2-0.9L8.8,103.9z M9.2,105.3c0.2,0.5,0.4,0.9,0.8,1.2l1.3-1.5c-0.1-0.1-0.2-0.2-0.3-0.4L9.2,105.3z M10,106.5
		c0.5,0.4,1,0.6,1.6,0.6v-2c-0.2,0-0.3,0-0.3-0.1L10,106.5z M11.6,107.1c0.8,0,1.5-0.3,2-1l-1.7-1.2c-0.1,0.1-0.1,0.2-0.4,0.2V107.1
		z M13.6,106c0.4-0.6,0.6-1.3,0.6-2.1h-2c0,0.5-0.1,0.7-0.2,0.9L13.6,106z M18.6,93.8l0.9,0.3l0,0L18.6,93.8z M17.7,95.3L17,94.6
		L17.7,95.3z M16.5,96.2l-0.9,0.4l0.4,1l0.9-0.4L16.5,96.2z M15.7,94.4l-0.5-0.9L14.5,94l0.3,0.8L15.7,94.4z M16.4,93.9l0.7,0.7l0,0
		L16.4,93.9z M17,93l0.9,0.4l0,0L17,93z M16.7,89.5l-0.8,0.6l0,0L16.7,89.5z M12.6,88.7v-1h-1v1H12.6z M12.6,88.9h-1v0.6l0.5,0.3
		L12.6,88.9z M13.4,89.4l-0.7,0.8l0,0L13.4,89.4z M14.2,90.4l-0.9,0.5L14.2,90.4z M13.9,94.4l0.9,0.5l0,0L13.9,94.4z M12.1,96
		l0.5,0.9l0,0L12.1,96z M6.1,96L5.7,97l0,0L6.1,96z M4.2,94.4L5,93.9l0,0L4.2,94.4z M3.8,90.4l0.9,0.5l0,0L3.8,90.4z M4.6,89.4
		l0.6,0.8l0,0L4.6,89.4z M5.4,88.8l0.5,0.9l0.5-0.3v-0.6H5.4z M5.4,88.7h1v-1h-1V88.7z M3.6,88.7h-1v1h1V88.7z M3.6,86.6v-1h-1v1
		H3.6z M17.2,87.3l-0.6,0.8L17.2,87.3z M18.6,89l-0.9,0.4l0,0L18.6,89z M12.3,90l0.8-0.6l0,0L12.3,90z M11,89L10.6,90l0,0L11,89z
		 M5.8,90l0.8,0.6l0,0L5.8,90z M5.8,93.2l0.8-0.6l0,0L5.8,93.2z M7.2,94.2l-0.4,0.9l0,0L7.2,94.2z M11,94.2l-0.4-0.9l0,0L11,94.2z
		 M12.2,93.2l0.8,0.6l0,0L12.2,93.2z M18,91.6c0,0.8-0.1,1.4-0.3,1.9l1.9,0.7c0.3-0.8,0.4-1.6,0.4-2.6H18z M17.7,93.5
		c-0.2,0.5-0.4,0.9-0.7,1.2l1.5,1.4c0.5-0.5,0.9-1.2,1.1-1.9L17.7,93.5z M17,94.6c-0.3,0.3-0.6,0.5-0.9,0.7l0.8,1.8
		c0.6-0.3,1.1-0.6,1.6-1.1L17,94.6z M17.4,95.8L16.7,94l-1.9,0.8l0.8,1.8L17.4,95.8z M16.3,95.2c0.3-0.2,0.6-0.4,0.8-0.6l-1.4-1.5
		c-0.2,0.2-0.4,0.3-0.5,0.4L16.3,95.2z M17.1,94.6c0.4-0.3,0.6-0.8,0.8-1.2l-1.8-0.8c-0.1,0.3-0.3,0.5-0.4,0.6L17.1,94.6z
		 M17.9,93.4c0.2-0.5,0.3-1.2,0.3-1.9h-2c0,0.5-0.1,0.8-0.2,1L17.9,93.4z M18.3,91.5c0-1-0.2-1.9-0.8-2.6l-1.6,1.2
		c0.2,0.3,0.4,0.8,0.4,1.4H18.3z M17.5,88.9c-0.6-0.9-1.6-1.2-2.7-1.2v2c0.6,0,0.9,0.2,1.1,0.4L17.5,88.9z M14.8,87.7h-2.2v2h2.2
		V87.7z M11.6,88.7v0.1h2v-0.1H11.6z M12.1,89.7c0.2,0.1,0.4,0.2,0.6,0.4l1.3-1.5c-0.3-0.3-0.6-0.5-0.9-0.7L12.1,89.7z M12.8,90.2
		c0.2,0.1,0.3,0.3,0.5,0.7l1.8-0.9c-0.3-0.5-0.6-1-1-1.3L12.8,90.2z M13.3,90.9c0.1,0.2,0.2,0.6,0.2,1.2h2c0-0.8-0.1-1.5-0.4-2.1
		L13.3,90.9z M13.5,92c0,0.7-0.2,1.3-0.5,1.8l1.7,1c0.5-0.9,0.7-1.8,0.7-2.9H13.5z M13,93.9c-0.3,0.5-0.8,0.9-1.4,1.3l0.9,1.8
		c0.9-0.5,1.7-1.2,2.2-2L13,93.9z M11.6,95.1c-0.6,0.3-1.4,0.5-2.5,0.5v2c1.3,0,2.4-0.2,3.4-0.7L11.6,95.1z M9.1,95.6
		c-1.1,0-1.9-0.2-2.6-0.5L5.7,97c1,0.5,2.2,0.7,3.4,0.7V95.6z M6.5,95.1c-0.7-0.3-1.2-0.8-1.5-1.3l-1.7,1.1c0.6,0.9,1.3,1.5,2.3,2
		L6.5,95.1z M5,93.9c-0.3-0.5-0.5-1.1-0.5-1.8h-2c0,1.1,0.3,2,0.8,2.9L5,93.9z M4.5,92c0-0.6,0.1-0.9,0.2-1.2l-1.8-1
		c-0.3,0.6-0.5,1.4-0.5,2.1H4.5z M4.7,90.9c0.2-0.3,0.4-0.5,0.5-0.7L4,88.6c-0.4,0.3-0.8,0.8-1.1,1.3L4.7,90.9z M5.3,90.2
		c0.3-0.2,0.5-0.4,0.7-0.5l-1-1.8c-0.3,0.2-0.6,0.4-0.9,0.6L5.3,90.2z M6.4,88.8v-0.2h-2v0.2H6.4z M5.4,87.7H3.6v2h1.8V87.7z
		 M4.7,88.7v-2.1h-2v2.1H4.7z M3.6,87.6h11.2v-2H3.6V87.6z M14.9,87.6c0.8,0,1.3,0.2,1.7,0.5l1.2-1.6c-0.8-0.6-1.8-0.9-2.9-0.9V87.6
		z M16.6,88.1c0.4,0.3,0.8,0.7,1,1.3l1.9-0.7c-0.4-0.9-0.9-1.7-1.7-2.2L16.6,88.1z M17.6,89.4c0.2,0.6,0.4,1.3,0.4,2.2h2
		c0-1-0.2-2-0.5-2.9L17.6,89.4z M13.7,91.6c0-0.8-0.2-1.5-0.6-2.1l-1.7,1.1c0.2,0.2,0.3,0.5,0.3,1H13.7z M13.1,89.4
		c-0.4-0.6-1-1.1-1.7-1.3L10.6,90c0.4,0.2,0.6,0.4,0.8,0.6L13.1,89.4z M11.4,88.1c-0.7-0.3-1.5-0.4-2.3-0.4v2c0.7,0,1.2,0.1,1.6,0.3
		L11.4,88.1z M9.1,87.7c-0.8,0-1.6,0.1-2.3,0.4L7.5,90c0.4-0.2,0.9-0.3,1.6-0.3V87.7z M6.7,88.1C6,88.4,5.4,88.8,5,89.4l1.6,1.2
		c0.2-0.3,0.5-0.5,0.9-0.6L6.7,88.1z M5,89.4c-0.5,0.6-0.7,1.4-0.7,2.2h2c0-0.4,0.1-0.7,0.3-1L5,89.4z M4.3,91.6
		c0,0.8,0.2,1.6,0.7,2.2l1.6-1.2c-0.2-0.2-0.3-0.5-0.3-1H4.3z M5,93.8c0.5,0.6,1.1,1,1.8,1.3l0.7-1.9c-0.4-0.2-0.7-0.4-0.9-0.6
		L5,93.8z M6.8,95.1c0.7,0.3,1.5,0.4,2.3,0.4v-2c-0.6,0-1.1-0.1-1.5-0.3L6.8,95.1z M9.1,95.5c0.8,0,1.6-0.1,2.3-0.4l-0.8-1.9
		c-0.4,0.2-0.9,0.3-1.5,0.3V95.5z M11.3,95.1c0.7-0.3,1.3-0.7,1.7-1.3l-1.6-1.2c-0.2,0.3-0.4,0.5-0.8,0.6L11.3,95.1z M13.1,93.8
		c0.4-0.6,0.6-1.4,0.6-2.2h-2c0,0.5-0.1,0.8-0.3,1L13.1,93.8z M14.2,81.8l0.9,0.5l0,0L14.2,81.8z M12.2,83.6l0.4,0.9l0,0L12.2,83.6z
		 M6.2,83.6l-0.4,0.9l0,0L6.2,83.6z M4.2,81.8l-0.9,0.5l0,0L4.2,81.8z M3.8,77.3l-1-0.3L3.8,77.3z M4.8,75.8l0.7,0.7l0,0L4.8,75.8z
		 M6.5,74.7l0.4,0.9l0,0L6.5,74.7z M9.8,74.3h1v-1h-1V74.3z M9.8,83v1h1v-1H9.8z M8.2,83h-1v1h1V83z M8.2,76.4h1v-1h-1V76.4z
		 M6.7,76.7l0.5,0.9l0,0L6.7,76.7z M5.6,77.7l0.9,0.5l0,0L5.6,77.7z M5.7,80.7l0.8-0.6l0,0L5.7,80.7z M6.9,81.7l-0.5,0.9l0,0
		L6.9,81.7z M11.5,81.7l0.5,0.9l0,0L11.5,81.7z M12.7,80.6l0.9,0.5l0,0L12.7,80.6z M12.9,77.8l1-0.3l0,0L12.9,77.8z M12.4,77
		l-0.7,0.7l0,0L12.4,77z M11.5,76.4l-1-0.2l-0.1,0.8l0.8,0.3L11.5,76.4z M11.9,74.4l0.3-1l-1.1-0.3l-0.2,1.1L11.9,74.4z M13.5,75.3
		L12.8,76l0,0L13.5,75.3z M14.5,76.8l0.9-0.4l0,0L14.5,76.8z M13.9,79c0,0.9-0.2,1.7-0.6,2.3l1.7,1c0.6-1,0.8-2.1,0.8-3.3H13.9z
		 M13.3,81.3c-0.4,0.6-0.9,1.1-1.6,1.4l0.9,1.8c1-0.5,1.8-1.2,2.4-2.2L13.3,81.3z M11.8,82.7c-0.7,0.3-1.5,0.5-2.5,0.5v2
		c1.3,0,2.4-0.2,3.4-0.7L11.8,82.7z M9.2,83.2c-1,0-1.8-0.2-2.5-0.5l-0.9,1.8c1,0.5,2.2,0.7,3.4,0.7V83.2z M6.7,82.7
		c-0.7-0.3-1.2-0.8-1.6-1.4l-1.7,1.1C4,83.3,4.8,84,5.8,84.5L6.7,82.7z M5.1,81.3c-0.4-0.6-0.6-1.3-0.6-2.1h-2
		c0,1.2,0.3,2.3,0.9,3.2L5.1,81.3z M4.5,79.1c0-0.5,0.1-1,0.3-1.5L2.9,77c-0.2,0.7-0.4,1.4-0.4,2.1H4.5z M4.8,77.7
		c0.2-0.4,0.4-0.8,0.7-1.2L4,75.1c-0.5,0.6-0.9,1.2-1.2,1.9L4.8,77.7z M5.5,76.5c0.3-0.3,0.8-0.6,1.3-0.8l-0.7-1.9
		C5.3,74,4.6,74.5,4,75.1L5.5,76.5z M6.8,75.6c0.6-0.2,1.3-0.3,2.2-0.3v-2c-1.1,0-2.1,0.1-2.9,0.5L6.8,75.6z M9,75.3h0.8v-2H9V75.3z
		 M8.8,74.3V83h2v-8.7H8.8z M9.8,82H8.2v2h1.6V82z M9.2,83v-6.6h-2V83H9.2z M8.2,75.4c-0.7,0-1.4,0.1-2,0.5l0.9,1.8
		c0.3-0.1,0.6-0.2,1-0.2V75.4z M6.2,75.8c-0.6,0.3-1.1,0.8-1.4,1.3l1.7,1c0.2-0.3,0.4-0.5,0.6-0.6L6.2,75.8z M4.8,77.1
		c-0.4,0.6-0.5,1.3-0.5,2h2c0-0.4,0.1-0.7,0.2-0.9L4.8,77.1z M4.3,79.1c0,0.8,0.2,1.5,0.6,2.1l1.7-1.1c-0.2-0.3-0.3-0.6-0.3-1H4.3z
		 M4.9,81.2c0.4,0.6,0.9,1.1,1.5,1.4l0.9-1.8c-0.3-0.2-0.6-0.4-0.8-0.7L4.9,81.2z M6.4,82.6c0.6,0.3,1.3,0.5,2,0.5v-2
		c-0.4,0-0.7-0.1-1.1-0.2L6.4,82.6z M8.4,83.1h1.3v-2H8.4V83.1z M9.6,83.1c0.8,0,1.6-0.1,2.3-0.5l-0.9-1.8c-0.3,0.2-0.8,0.3-1.4,0.3
		V83.1z M12,82.6c0.7-0.3,1.2-0.8,1.6-1.5l-1.7-1c-0.2,0.3-0.4,0.5-0.8,0.7L12,82.6z M13.6,81.1c0.4-0.6,0.5-1.4,0.5-2.1h-2
		c0,0.5-0.1,0.8-0.3,1.1L13.6,81.1z M14.1,79c0-0.5-0.1-1-0.2-1.4L12,78.2c0.1,0.2,0.1,0.5,0.1,0.8H14.1z M13.9,77.5
		c-0.2-0.5-0.4-0.9-0.8-1.2l-1.5,1.4c0.1,0.1,0.2,0.3,0.3,0.5L13.9,77.5z M13.1,76.3c-0.3-0.4-0.8-0.6-1.2-0.8l-0.7,1.9
		c0.2,0.1,0.4,0.2,0.5,0.3L13.1,76.3z M12.5,76.6l0.4-2l-2-0.4l-0.4,2L12.5,76.6z M11.6,75.4c0.4,0.1,0.8,0.3,1.1,0.6l1.4-1.5
		c-0.6-0.5-1.2-0.9-2-1.1L11.6,75.4z M12.8,76c0.3,0.3,0.6,0.7,0.8,1.2l1.9-0.7c-0.3-0.8-0.7-1.4-1.3-1.9L12.8,76z M13.6,77.2
		c0.2,0.5,0.3,1.1,0.3,1.8h2c0-0.9-0.1-1.7-0.4-2.5L13.6,77.2z M3.6,61.4v-1h-1v1H3.6z M5.4,61.4h1v-1h-1V61.4z M5.4,67.4v1h1v-1
		H5.4z M3.6,67.4h-1v1h1V67.4z M1,65.8H0v1h1V65.8z M1,63.7v-1H0v1H1z M12.3,63.5l0.5,0.9l0,0L12.3,63.5z M12.8,63l0.9,0.4l0,0l0,0
		L12.8,63z M12.8,61.9l1-0.2L12.8,61.9z M12.8,61.6l-0.2-1l-1,0.2l0.2,1L12.8,61.6z M14.6,61.2l0.9-0.4L15.2,60l-0.8,0.2L14.6,61.2z
		 M14.7,61.7l-1,0.2l0,0l0,0L14.7,61.7z M14.8,62.6l-1,0l0,0L14.8,62.6z M14.5,64.2l0.9,0.4L14.5,64.2z M13.5,65.4l0.6,0.8
		L13.5,65.4z M3.6,62.4h1.7v-2H3.6V62.4z M4.4,61.4v6h2v-6H4.4z M5.4,66.4H3.6v2h1.7V66.4z M4.7,67.4v-6h-2v6H4.7z M2,65.8v-2.1H0
		v2.1H2z M1,64.7h10.4v-2H1V64.7z M11.4,64.7c0.5,0,1-0.1,1.5-0.3l-1-1.7c0,0,0,0-0.1,0c-0.1,0-0.2,0-0.3,0V64.7z M12.9,64.4
		c0.4-0.2,0.7-0.5,0.8-1l-1.9-0.7c0,0,0,0,0,0c0,0,0,0,0,0c0,0,0,0,0,0L12.9,64.4z M13.7,63.3c0.1-0.3,0.2-0.7,0.2-1h-2
		c0,0.1,0,0.2,0,0.3L13.7,63.3z M13.9,62.4c0-0.2,0-0.4-0.1-0.6l-2,0.4c0,0.1,0,0.1,0,0.3H13.9z M13.8,61.7c0-0.1,0-0.2-0.1-0.3
		l-2,0.4c0,0.1,0,0.2,0.1,0.3L13.8,61.7z M13,62.6l1.8-0.4l-0.4-2l-1.8,0.4L13,62.6z M13.6,61.6c0,0,0.1,0.2,0.1,0.4l2-0.4
		c-0.1-0.2-0.1-0.5-0.2-0.7L13.6,61.6z M13.7,62c0,0.1,0.1,0.3,0.1,0.6l2,0c0-0.4,0-0.7-0.1-1.1L13.7,62z M13.8,62.6
		c0,0.4-0.1,0.8-0.2,1.2l1.9,0.8c0.3-0.6,0.4-1.3,0.4-2L13.8,62.6z M13.6,63.8c-0.1,0.3-0.3,0.6-0.6,0.7l1.1,1.7
		c0.6-0.4,1-1,1.3-1.6L13.6,63.8z M12.9,64.5c-0.2,0.2-0.6,0.3-1.1,0.3v2c0.8,0,1.6-0.2,2.2-0.6L12.9,64.5z M11.9,64.8H1v2h10.8
		V64.8z M12.2,59l-0.5-0.9L12.2,59z M4.2,57.2l0.9-0.5L4.2,57.2z M4.2,51.8l0.9,0.5L4.2,51.8z M12.2,50l-0.5,0.9L12.2,50z
		 M14.2,51.8l0.9-0.5L14.2,51.8z M12.5,52.9l-0.8,0.6L12.5,52.9z M11.1,51.9l-0.3,0.9l0,0L11.1,51.9z M7.3,51.9l0.3,0.9l0,0
		L7.3,51.9z M5.8,52.9l0.8,0.6l0,0L5.8,52.9z M5.8,56.2L5,56.8l0,0L5.8,56.2z M7.3,57.2l-0.3,0.9l0,0L7.3,57.2z M11.1,57.2l0.3,0.9
		l0,0L11.1,57.2z M12.5,56.2l0.8,0.6l0,0L12.5,56.2z M13.9,54.5c0,0.9-0.2,1.6-0.6,2.2l1.7,1.1c0.6-0.9,0.9-2,0.9-3.2H13.9z
		 M13.3,56.7c-0.4,0.6-0.9,1.1-1.6,1.4l0.9,1.8c1-0.5,1.8-1.2,2.4-2.2L13.3,56.7z M11.7,58.1c-0.7,0.3-1.5,0.5-2.5,0.5v2
		c1.3,0,2.4-0.2,3.4-0.7L11.7,58.1z M9.2,58.7c-1,0-1.9-0.2-2.5-0.5l-0.9,1.8c1,0.5,2.2,0.7,3.4,0.7V58.7z M6.6,58.1
		c-0.7-0.3-1.2-0.8-1.6-1.4l-1.7,1.1c0.6,0.9,1.4,1.7,2.4,2.2L6.6,58.1z M5.1,56.7c-0.4-0.6-0.6-1.3-0.6-2.2h-2
		c0,1.2,0.3,2.3,0.9,3.2L5.1,56.7z M4.5,54.5c0-0.9,0.2-1.6,0.6-2.2l-1.7-1.1c-0.6,0.9-0.9,2-0.9,3.2H4.5z M5.1,52.4
		C5.4,51.8,6,51.3,6.6,51l-0.9-1.8c-1,0.5-1.8,1.2-2.4,2.2L5.1,52.4z M6.6,51c0.7-0.3,1.5-0.5,2.5-0.5v-2c-1.3,0-2.4,0.2-3.4,0.7
		L6.6,51z M9.2,50.4c1,0,1.8,0.2,2.5,0.5l0.9-1.8c-1-0.5-2.2-0.7-3.4-0.7V50.4z M11.7,50.9c0.7,0.3,1.2,0.8,1.6,1.4l1.7-1.1
		c-0.6-0.9-1.4-1.7-2.4-2.2L11.7,50.9z M13.3,52.4c0.4,0.6,0.6,1.3,0.6,2.2h2c0-1.2-0.3-2.3-0.9-3.2L13.3,52.4z M14.1,54.5
		c0-0.9-0.2-1.6-0.8-2.3l-1.6,1.3c0.2,0.2,0.3,0.5,0.3,1H14.1z M13.3,52.2c-0.5-0.6-1.1-1-1.9-1.3l-0.7,1.9c0.4,0.2,0.7,0.4,1,0.7
		L13.3,52.2z M11.5,50.9c-0.7-0.3-1.5-0.4-2.3-0.4v2c0.6,0,1.1,0.1,1.6,0.3L11.5,50.9z M9.2,50.6c-0.8,0-1.6,0.1-2.3,0.4l0.7,1.9
		c0.5-0.2,1-0.3,1.6-0.3V50.6z M6.9,50.9c-0.7,0.3-1.4,0.7-1.9,1.3l1.6,1.3c0.2-0.3,0.5-0.5,1-0.7L6.9,50.9z M5,52.2
		c-0.5,0.7-0.8,1.4-0.8,2.3h2c0-0.5,0.1-0.8,0.3-1L5,52.2z M4.3,54.5c0,0.9,0.2,1.7,0.8,2.3l1.6-1.3c-0.2-0.2-0.3-0.6-0.3-1H4.3z
		 M5,56.8c0.5,0.6,1.1,1,1.9,1.3l0.7-1.9c-0.4-0.2-0.8-0.4-1-0.7L5,56.8z M6.9,58.1c0.7,0.3,1.5,0.4,2.3,0.4v-2
		c-0.6,0-1.1-0.1-1.6-0.3L6.9,58.1z M9.2,58.5c0.8,0,1.6-0.1,2.3-0.4l-0.7-1.9c-0.5,0.2-1,0.3-1.6,0.3V58.5z M11.5,58.1
		c0.7-0.3,1.4-0.7,1.8-1.3l-1.6-1.3c-0.2,0.3-0.5,0.5-1,0.7L11.5,58.1z M13.3,56.8c0.5-0.7,0.7-1.4,0.7-2.3h-2c0,0.5-0.1,0.8-0.3,1
		L13.3,56.8z M18.8,47v1h1v-1H18.8z M3.6,47h-1v1h1V47z M3.6,44.9v-1h-1v1H3.6z M5.4,44.9v1h1v-1H5.4z M5.4,44.8h1v-0.6l-0.5-0.3
		L5.4,44.8z M4.6,44.2l0.6-0.8L4.6,44.2z M3.8,43.2l0.9-0.5l0,0L3.8,43.2z M4.2,39.2L5,39.8l0,0L4.2,39.2z M6.1,37.6l0.4,0.9l0,0
		L6.1,37.6z M12.2,37.6l0.4-0.9l0,0L12.2,37.6z M14.2,39.2l0.8-0.6l0,0L14.2,39.2z M14.5,43.2l0.9,0.5l0,0L14.5,43.2z M13.7,44.2
		l-0.6-0.8h0L13.7,44.2z M12.9,44.8l-0.5-0.9l-0.5,0.3v0.6H12.9z M12.9,44.9h-1v1h1V44.9z M18.8,44.9h1v-1h-1V44.9z M11.2,44.6
		l0.4,0.9L11.2,44.6z M12.5,43.6l0.8,0.6l0,0L12.5,43.6z M12.5,40.4l0.8-0.6l0,0L12.5,40.4z M11.1,39.5l-0.4,0.9l0,0L11.1,39.5z
		 M7.2,39.5l0.4,0.9l0,0L7.2,39.5z M5.8,40.4l0.8,0.6l0,0L5.8,40.4z M5.8,43.6L5,44.2l0,0L5.8,43.6z M7.1,44.6l0.4-0.9L7.1,44.6z
		 M18.8,46H3.6v2h15.1V46z M4.7,47v-2.1h-2V47H4.7z M3.6,45.9h1.8v-2H3.6V45.9z M6.4,44.9v-0.2h-2v0.2H6.4z M5.9,43.9
		c-0.2-0.1-0.4-0.2-0.7-0.4L4,45c0.3,0.3,0.6,0.5,0.9,0.6L5.9,43.9z M5.2,43.4c-0.2-0.1-0.3-0.3-0.5-0.7l-1.8,1
		c0.3,0.5,0.6,1,1.1,1.3L5.2,43.4z M4.7,42.8c-0.1-0.2-0.2-0.6-0.2-1.2h-2c0,0.8,0.1,1.5,0.5,2.1L4.7,42.8z M4.5,41.6
		c0-0.7,0.2-1.3,0.5-1.8l-1.7-1.1c-0.6,0.9-0.8,1.9-0.8,2.9H4.5z M5,39.8c0.3-0.5,0.8-0.9,1.5-1.3l-0.9-1.8c-1,0.5-1.8,1.1-2.4,2
		L5,39.8z M6.5,38.5C7.2,38.2,8.1,38,9.2,38v-2c-1.3,0-2.5,0.2-3.5,0.7L6.5,38.5z M9.2,38c1.1,0,1.9,0.2,2.6,0.5l0.9-1.8
		c-1-0.5-2.2-0.7-3.5-0.7V38z M11.8,38.5c0.7,0.3,1.2,0.8,1.5,1.3l1.7-1.1c-0.6-0.9-1.4-1.5-2.4-2L11.8,38.5z M13.3,39.8
		c0.3,0.5,0.5,1.1,0.5,1.8h2c0-1.1-0.3-2.1-0.8-2.9L13.3,39.8z M13.8,41.6c0,0.6-0.1,0.9-0.2,1.2l1.8,0.9c0.3-0.6,0.5-1.3,0.5-2.1
		H13.8z M13.6,42.7c-0.2,0.3-0.4,0.5-0.5,0.7l1.3,1.6c0.4-0.3,0.8-0.8,1-1.3L13.6,42.7z M13.1,43.4c-0.3,0.2-0.5,0.4-0.7,0.5l1,1.8
		c0.3-0.2,0.6-0.4,0.9-0.6L13.1,43.4z M11.9,44.8v0.1h2v-0.1H11.9z M12.9,45.9h5.8v-2h-5.8V45.9z M17.8,44.9V47h2v-2.1H17.8z
		 M9.1,45.9c0.9,0,1.7-0.1,2.4-0.4l-0.7-1.9c-0.4,0.2-1,0.3-1.7,0.3V45.9z M11.5,45.5c0.7-0.3,1.3-0.7,1.8-1.3L11.7,43
		c-0.2,0.3-0.5,0.5-0.9,0.7L11.5,45.5z M13.3,44.2c0.5-0.6,0.7-1.4,0.7-2.2h-2c0,0.4-0.1,0.7-0.3,0.9L13.3,44.2z M14,42.1
		c0-0.8-0.2-1.6-0.7-2.2l-1.6,1.2c0.2,0.2,0.3,0.5,0.3,1H14z M13.3,39.8c-0.5-0.6-1.1-1-1.8-1.3l-0.7,1.9c0.4,0.2,0.7,0.4,1,0.7
		L13.3,39.8z M11.5,38.5c-0.7-0.3-1.5-0.4-2.3-0.4v2c0.6,0,1.2,0.1,1.6,0.3L11.5,38.5z M9.1,38.1c-0.8,0-1.6,0.1-2.3,0.4l0.7,1.9
		c0.4-0.2,1-0.3,1.6-0.3V38.1z M6.8,38.5c-0.7,0.3-1.4,0.7-1.8,1.3l1.6,1.2c0.2-0.3,0.5-0.5,0.9-0.6L6.8,38.5z M5,39.8
		c-0.5,0.6-0.7,1.4-0.7,2.2h2c0-0.5,0.1-0.8,0.3-1L5,39.8z M4.3,42.1c0,0.8,0.2,1.5,0.7,2.2L6.6,43c-0.2-0.2-0.3-0.5-0.3-1H4.3z
		 M5,44.2c0.5,0.6,1.1,1,1.8,1.3l0.7-1.9c-0.4-0.2-0.7-0.4-0.9-0.6L5,44.2z M6.8,45.5c0.7,0.3,1.5,0.4,2.4,0.4v-2
		c-0.7,0-1.2-0.1-1.6-0.3L6.8,45.5z"/>
</g>
</svg>
